<svg width="28" height="28" viewBox="0 0 28 28" fill="none" xmlns="http://www.w3.org/2000/svg">
<g opacity="0.38">
<path d="M13.9999 2.33334C20.4399 2.33334 25.6666 7.56001 25.6666 14C25.6666 20.44 20.4399 25.6667 13.9999 25.6667C7.55992 25.6667 2.33325 20.44 2.33325 14C2.33325 7.56001 7.55992 2.33334 13.9999 2.33334ZM7.02675 17.9853C8.73942 20.5403 11.3108 22.1667 14.1866 22.1667C17.0613 22.1667 19.6338 20.5415 21.3453 17.9853C19.4036 16.1707 16.8442 15.163 14.1866 15.1667C11.5286 15.1627 8.96868 16.1704 7.02675 17.9853ZM13.9999 12.8333C14.9282 12.8333 15.8184 12.4646 16.4748 11.8082C17.1312 11.1518 17.4999 10.2616 17.4999 9.33334C17.4999 8.40509 17.1312 7.51485 16.4748 6.85847C15.8184 6.20209 14.9282 5.83334 13.9999 5.83334C13.0717 5.83334 12.1814 6.20209 11.525 6.85847C10.8687 7.51485 10.4999 8.40509 10.4999 9.33334C10.4999 10.2616 10.8687 11.1518 11.525 11.8082C12.1814 12.4646 13.0717 12.8333 13.9999 12.8333Z" fill="#1A153A"/>
</g>
</svg>
