<svg width="28" height="28" viewBox="0 0 28 28" fill="none" xmlns="http://www.w3.org/2000/svg">
<g opacity="0.38">
<path d="M12.8333 24.5C12.8333 24.0359 12.6489 23.5908 12.3207 23.2626C11.9925 22.9344 11.5474 22.75 11.0833 22.75C10.6191 22.75 10.174 22.9344 9.84582 23.2626C9.51763 23.5908 9.33325 24.0359 9.33325 24.5H3.49992C3.1905 24.5 2.89375 24.3771 2.67496 24.1583C2.45617 23.9395 2.33325 23.6428 2.33325 23.3333V4.66667C2.33325 4.35725 2.45617 4.0605 2.67496 3.84171C2.89375 3.62292 3.1905 3.5 3.49992 3.5H9.33325C9.33325 3.96413 9.51763 4.40925 9.84582 4.73744C10.174 5.06563 10.6191 5.25 11.0833 5.25C11.5474 5.25 11.9925 5.06563 12.3207 4.73744C12.6489 4.40925 12.8333 3.96413 12.8333 3.5H24.4999C24.8093 3.5 25.1061 3.62292 25.3249 3.84171C25.5437 4.0605 25.6666 4.35725 25.6666 4.66667V11.0833C24.893 11.0833 24.1512 11.3906 23.6042 11.9376C23.0572 12.4846 22.7499 13.2265 22.7499 14C22.7499 14.7735 23.0572 15.5154 23.6042 16.0624C24.1512 16.6094 24.893 16.9167 25.6666 16.9167V23.3333C25.6666 23.6428 25.5437 23.9395 25.3249 24.1583C25.1061 24.3771 24.8093 24.5 24.4999 24.5H12.8333ZM11.0833 12.25C11.5474 12.25 11.9925 12.0656 12.3207 11.7374C12.6489 11.4092 12.8333 10.9641 12.8333 10.5C12.8333 10.0359 12.6489 9.59075 12.3207 9.26256C11.9925 8.93437 11.5474 8.75 11.0833 8.75C10.6191 8.75 10.174 8.93437 9.84582 9.26256C9.51763 9.59075 9.33325 10.0359 9.33325 10.5C9.33325 10.9641 9.51763 11.4092 9.84582 11.7374C10.174 12.0656 10.6191 12.25 11.0833 12.25ZM11.0833 19.25C11.5474 19.25 11.9925 19.0656 12.3207 18.7374C12.6489 18.4092 12.8333 17.9641 12.8333 17.5C12.8333 17.0359 12.6489 16.5908 12.3207 16.2626C11.9925 15.9344 11.5474 15.75 11.0833 15.75C10.6191 15.75 10.174 15.9344 9.84582 16.2626C9.51763 16.5908 9.33325 17.0359 9.33325 17.5C9.33325 17.9641 9.51763 18.4092 9.84582 18.7374C10.174 19.0656 10.6191 19.25 11.0833 19.25Z" fill="#1A153A"/>
</g>
</svg>
