<svg width="28" height="28" viewBox="0 0 28 28" fill="none" xmlns="http://www.w3.org/2000/svg">
<path d="M13.9999 2.33333C20.4399 2.33333 25.6666 7.56 25.6666 14C25.6666 20.44 20.4399 25.6667 13.9999 25.6667C7.55992 25.6667 2.33325 20.44 2.33325 14C2.33325 7.56 7.55992 2.33333 13.9999 2.33333ZM7.02675 17.9853C8.73942 20.5403 11.3108 22.1667 14.1866 22.1667C17.0613 22.1667 19.6338 20.5415 21.3453 17.9853C19.4036 16.1707 16.8442 15.1629 14.1866 15.1667C11.5286 15.1626 8.96868 16.1704 7.02675 17.9853ZM13.9999 12.8333C14.9282 12.8333 15.8184 12.4646 16.4748 11.8082C17.1312 11.1518 17.4999 10.2616 17.4999 9.33333C17.4999 8.40507 17.1312 7.51483 16.4748 6.85845C15.8184 6.20208 14.9282 5.83333 13.9999 5.83333C13.0717 5.83333 12.1814 6.20208 11.525 6.85845C10.8687 7.51483 10.4999 8.40507 10.4999 9.33333C10.4999 10.2616 10.8687 11.1518 11.525 11.8082C12.1814 12.4646 13.0717 12.8333 13.9999 12.8333Z" fill="#EB1956"/>
</svg>
