<svg width="24" height="24" viewBox="0 0 24 24" fill="none" xmlns="http://www.w3.org/2000/svg">
<g opacity="0.38">
<path fill-rule="evenodd" clip-rule="evenodd" d="M16.0488 11.0244C16.0488 13.7993 13.7993 16.0488 11.0244 16.0488C8.2495 16.0488 6 13.7993 6 11.0244C6 8.2495 8.2495 6 11.0244 6C13.7993 6 16.0488 8.2495 16.0488 11.0244ZM15.234 16.6482C14.0608 17.5277 12.6035 18.0488 11.0244 18.0488C7.14493 18.0488 4 14.9039 4 11.0244C4 7.14493 7.14493 4 11.0244 4C14.9039 4 18.0488 7.14493 18.0488 11.0244C18.0488 12.6035 17.5277 14.0608 16.6482 15.234L19.9266 18.5124C20.3171 18.9029 20.3171 19.5361 19.9266 19.9266C19.5361 20.3171 18.9029 20.3171 18.5124 19.9266L15.234 16.6482Z" fill="#1A153A"/>
</g>
</svg>
