<svg width="28" height="28" viewBox="0 0 28 28" fill="none" xmlns="http://www.w3.org/2000/svg">
<path d="M24.5 23.3333C24.5 23.6428 24.3771 23.9395 24.1583 24.1583C23.9395 24.3771 23.6428 24.5 23.3333 24.5H4.66667C4.35725 24.5 4.0605 24.3771 3.84171 24.1583C3.62292 23.9395 3.5 23.6428 3.5 23.3333V11.0717C3.49988 10.8939 3.54039 10.7184 3.61844 10.5587C3.69648 10.399 3.81001 10.2592 3.95033 10.15L13.2837 2.89101C13.4885 2.7317 13.7405 2.6452 14 2.6452C14.2595 2.6452 14.5115 2.7317 14.7163 2.89101L24.0497 10.15C24.19 10.2592 24.3035 10.399 24.3816 10.5587C24.4596 10.7184 24.5001 10.8939 24.5 11.0717V23.3333ZM12.8333 15.1667V22.1667H15.1667V15.1667H12.8333Z" fill="#EB1956"/>
</svg>
